<mxfile host="app.diagrams.net" modified="2021-09-22T00:14:03.742Z" agent="5.0 (Windows NT 10.0; Win64; x64) AppleWebKit/537.36 (KHTML, like Gecko) Chrome/93.0.4577.82 Safari/537.36" etag="nKa3oWGBcuqqu4gf7jss" version="15.2.9" type="github">
  <diagram id="R2lEEEUBdFMjLlhIrx00" name="Page-1">
    <mxGraphModel dx="432" dy="399" grid="1" gridSize="10" guides="1" tooltips="1" connect="1" arrows="1" fold="1" page="1" pageScale="1" pageWidth="850" pageHeight="1100" math="0" shadow="0" extFonts="Permanent Marker^https://fonts.googleapis.com/css?family=Permanent+Marker">
      <root>
        <mxCell id="0" />
        <mxCell id="1" parent="0" />
        <mxCell id="abNH4VKIRFXWZq9GWaRh-1" value="UNIVERSITY" style="whiteSpace=wrap;html=1;align=center;" vertex="1" parent="1">
          <mxGeometry x="430" y="410" width="100" height="40" as="geometry" />
        </mxCell>
        <mxCell id="abNH4VKIRFXWZq9GWaRh-2" value="TEAM" style="whiteSpace=wrap;html=1;align=center;" vertex="1" parent="1">
          <mxGeometry x="430" y="560" width="100" height="40" as="geometry" />
        </mxCell>
        <mxCell id="abNH4VKIRFXWZq9GWaRh-3" value="Uni-ID" style="ellipse;whiteSpace=wrap;html=1;align=center;fontStyle=4;" vertex="1" parent="1">
          <mxGeometry x="330" y="340" width="100" height="40" as="geometry" />
        </mxCell>
        <mxCell id="abNH4VKIRFXWZq9GWaRh-4" value="Name" style="ellipse;whiteSpace=wrap;html=1;align=center;" vertex="1" parent="1">
          <mxGeometry x="430" y="320" width="100" height="40" as="geometry" />
        </mxCell>
        <mxCell id="abNH4VKIRFXWZq9GWaRh-5" value="Province" style="ellipse;whiteSpace=wrap;html=1;align=center;" vertex="1" parent="1">
          <mxGeometry x="550" y="330" width="100" height="40" as="geometry" />
        </mxCell>
        <mxCell id="abNH4VKIRFXWZq9GWaRh-6" value="" style="endArrow=none;html=1;rounded=0;entryX=1;entryY=1;entryDx=0;entryDy=0;exitX=0.5;exitY=0;exitDx=0;exitDy=0;" edge="1" parent="1" source="abNH4VKIRFXWZq9GWaRh-1" target="abNH4VKIRFXWZq9GWaRh-3">
          <mxGeometry relative="1" as="geometry">
            <mxPoint x="430" y="450" as="sourcePoint" />
            <mxPoint x="590" y="450" as="targetPoint" />
          </mxGeometry>
        </mxCell>
        <mxCell id="abNH4VKIRFXWZq9GWaRh-7" value="" style="endArrow=none;html=1;rounded=0;entryX=0.5;entryY=1;entryDx=0;entryDy=0;exitX=0.5;exitY=0;exitDx=0;exitDy=0;" edge="1" parent="1" source="abNH4VKIRFXWZq9GWaRh-1" target="abNH4VKIRFXWZq9GWaRh-4">
          <mxGeometry relative="1" as="geometry">
            <mxPoint x="490" y="420" as="sourcePoint" />
            <mxPoint x="425.25388964396745" y="384.1825992820559" as="targetPoint" />
          </mxGeometry>
        </mxCell>
        <mxCell id="abNH4VKIRFXWZq9GWaRh-8" value="" style="endArrow=none;html=1;rounded=0;entryX=0;entryY=1;entryDx=0;entryDy=0;exitX=0.5;exitY=0;exitDx=0;exitDy=0;" edge="1" parent="1" source="abNH4VKIRFXWZq9GWaRh-1" target="abNH4VKIRFXWZq9GWaRh-5">
          <mxGeometry relative="1" as="geometry">
            <mxPoint x="500" y="430" as="sourcePoint" />
            <mxPoint x="435.25388964396745" y="394.1825992820559" as="targetPoint" />
          </mxGeometry>
        </mxCell>
        <mxCell id="abNH4VKIRFXWZq9GWaRh-9" value="Name" style="ellipse;whiteSpace=wrap;html=1;align=center;fontStyle=4;" vertex="1" parent="1">
          <mxGeometry x="560" y="530" width="100" height="40" as="geometry" />
        </mxCell>
        <mxCell id="abNH4VKIRFXWZq9GWaRh-10" value="" style="endArrow=none;html=1;rounded=0;entryX=0;entryY=1;entryDx=0;entryDy=0;exitX=1;exitY=0.5;exitDx=0;exitDy=0;" edge="1" parent="1" source="abNH4VKIRFXWZq9GWaRh-2" target="abNH4VKIRFXWZq9GWaRh-9">
          <mxGeometry relative="1" as="geometry">
            <mxPoint x="430" y="400" as="sourcePoint" />
            <mxPoint x="514.7461103560354" y="354.18259928205475" as="targetPoint" />
          </mxGeometry>
        </mxCell>
        <mxCell id="abNH4VKIRFXWZq9GWaRh-11" value="MEMBER" style="whiteSpace=wrap;html=1;align=center;" vertex="1" parent="1">
          <mxGeometry x="430" y="700" width="100" height="40" as="geometry" />
        </mxCell>
        <mxCell id="abNH4VKIRFXWZq9GWaRh-12" value="Mem-ID" style="ellipse;whiteSpace=wrap;html=1;align=center;fontStyle=4;" vertex="1" parent="1">
          <mxGeometry x="430" y="780" width="100" height="40" as="geometry" />
        </mxCell>
        <mxCell id="abNH4VKIRFXWZq9GWaRh-13" value="" style="endArrow=none;html=1;rounded=0;exitX=0.5;exitY=1;exitDx=0;exitDy=0;entryX=0.5;entryY=0;entryDx=0;entryDy=0;" edge="1" parent="1" source="abNH4VKIRFXWZq9GWaRh-11" target="abNH4VKIRFXWZq9GWaRh-12">
          <mxGeometry relative="1" as="geometry">
            <mxPoint x="430" y="540" as="sourcePoint" />
            <mxPoint x="550" y="790" as="targetPoint" />
          </mxGeometry>
        </mxCell>
        <mxCell id="abNH4VKIRFXWZq9GWaRh-14" value="Name" style="ellipse;whiteSpace=wrap;html=1;align=center;" vertex="1" parent="1">
          <mxGeometry x="540" y="760" width="100" height="40" as="geometry" />
        </mxCell>
        <mxCell id="abNH4VKIRFXWZq9GWaRh-15" value="" style="endArrow=none;html=1;rounded=0;entryX=0;entryY=0;entryDx=0;entryDy=0;exitX=0.5;exitY=1;exitDx=0;exitDy=0;" edge="1" parent="1" target="abNH4VKIRFXWZq9GWaRh-14" source="abNH4VKIRFXWZq9GWaRh-11">
          <mxGeometry relative="1" as="geometry">
            <mxPoint x="650" y="770" as="sourcePoint" />
            <mxPoint x="595.2538896439675" y="744.1825992820559" as="targetPoint" />
          </mxGeometry>
        </mxCell>
        <mxCell id="abNH4VKIRFXWZq9GWaRh-17" value="BirthDate" style="ellipse;whiteSpace=wrap;html=1;align=center;" vertex="1" parent="1">
          <mxGeometry x="310" y="770" width="100" height="40" as="geometry" />
        </mxCell>
        <mxCell id="abNH4VKIRFXWZq9GWaRh-18" value="" style="endArrow=none;html=1;rounded=0;entryX=1;entryY=0;entryDx=0;entryDy=0;exitX=0.5;exitY=1;exitDx=0;exitDy=0;" edge="1" parent="1" source="abNH4VKIRFXWZq9GWaRh-11" target="abNH4VKIRFXWZq9GWaRh-17">
          <mxGeometry relative="1" as="geometry">
            <mxPoint x="490" y="749.9999999999999" as="sourcePoint" />
            <mxPoint x="564.6446609406747" y="775.8578643762698" as="targetPoint" />
          </mxGeometry>
        </mxCell>
        <mxCell id="abNH4VKIRFXWZq9GWaRh-19" value="REPRESENTED_BY" style="shape=rhombus;perimeter=rhombusPerimeter;whiteSpace=wrap;html=1;align=center;" vertex="1" parent="1">
          <mxGeometry x="410" y="470" width="140" height="60" as="geometry" />
        </mxCell>
        <mxCell id="abNH4VKIRFXWZq9GWaRh-20" value="" style="shape=link;html=1;rounded=0;exitX=0.5;exitY=1;exitDx=0;exitDy=0;entryX=0.5;entryY=0;entryDx=0;entryDy=0;" edge="1" parent="1" source="abNH4VKIRFXWZq9GWaRh-1" target="abNH4VKIRFXWZq9GWaRh-19">
          <mxGeometry relative="1" as="geometry">
            <mxPoint x="410" y="540" as="sourcePoint" />
            <mxPoint x="570" y="540" as="targetPoint" />
          </mxGeometry>
        </mxCell>
        <mxCell id="abNH4VKIRFXWZq9GWaRh-21" value="1" style="resizable=0;html=1;align=right;verticalAlign=bottom;" connectable="0" vertex="1" parent="abNH4VKIRFXWZq9GWaRh-20">
          <mxGeometry x="1" relative="1" as="geometry" />
        </mxCell>
        <mxCell id="abNH4VKIRFXWZq9GWaRh-22" value="" style="shape=link;html=1;rounded=0;exitX=0.5;exitY=1;exitDx=0;exitDy=0;entryX=0.5;entryY=0;entryDx=0;entryDy=0;" edge="1" parent="1" source="abNH4VKIRFXWZq9GWaRh-19" target="abNH4VKIRFXWZq9GWaRh-2">
          <mxGeometry relative="1" as="geometry">
            <mxPoint x="480" y="540" as="sourcePoint" />
            <mxPoint x="481" y="557" as="targetPoint" />
          </mxGeometry>
        </mxCell>
        <mxCell id="abNH4VKIRFXWZq9GWaRh-23" value="N" style="resizable=0;html=1;align=right;verticalAlign=bottom;" connectable="0" vertex="1" parent="abNH4VKIRFXWZq9GWaRh-22">
          <mxGeometry x="1" relative="1" as="geometry" />
        </mxCell>
        <mxCell id="abNH4VKIRFXWZq9GWaRh-24" value="HAVE" style="shape=rhombus;perimeter=rhombusPerimeter;whiteSpace=wrap;html=1;align=center;" vertex="1" parent="1">
          <mxGeometry x="370" y="630" width="100" height="40" as="geometry" />
        </mxCell>
        <mxCell id="abNH4VKIRFXWZq9GWaRh-25" value="" style="shape=link;html=1;rounded=0;exitX=0.5;exitY=1;exitDx=0;exitDy=0;entryX=0.5;entryY=0;entryDx=0;entryDy=0;" edge="1" parent="1" target="abNH4VKIRFXWZq9GWaRh-24" source="abNH4VKIRFXWZq9GWaRh-2">
          <mxGeometry relative="1" as="geometry">
            <mxPoint x="480" y="610" as="sourcePoint" />
            <mxPoint x="570" y="700" as="targetPoint" />
          </mxGeometry>
        </mxCell>
        <mxCell id="abNH4VKIRFXWZq9GWaRh-26" value="1" style="resizable=0;html=1;align=right;verticalAlign=bottom;" connectable="0" vertex="1" parent="abNH4VKIRFXWZq9GWaRh-25">
          <mxGeometry x="1" relative="1" as="geometry" />
        </mxCell>
        <mxCell id="abNH4VKIRFXWZq9GWaRh-27" value="" style="shape=link;html=1;rounded=0;exitX=0.5;exitY=1;exitDx=0;exitDy=0;entryX=0.5;entryY=0;entryDx=0;entryDy=0;" edge="1" parent="1" source="abNH4VKIRFXWZq9GWaRh-24" target="abNH4VKIRFXWZq9GWaRh-11">
          <mxGeometry relative="1" as="geometry">
            <mxPoint x="480" y="700" as="sourcePoint" />
            <mxPoint x="480" y="720" as="targetPoint" />
          </mxGeometry>
        </mxCell>
        <mxCell id="abNH4VKIRFXWZq9GWaRh-28" value="N" style="resizable=0;html=1;align=right;verticalAlign=bottom;" connectable="0" vertex="1" parent="abNH4VKIRFXWZq9GWaRh-27">
          <mxGeometry x="1" relative="1" as="geometry">
            <mxPoint x="-60" y="-10" as="offset" />
          </mxGeometry>
        </mxCell>
        <mxCell id="abNH4VKIRFXWZq9GWaRh-29" value="LED_BY" style="shape=rhombus;perimeter=rhombusPerimeter;whiteSpace=wrap;html=1;align=center;" vertex="1" parent="1">
          <mxGeometry x="480" y="630" width="100" height="40" as="geometry" />
        </mxCell>
        <mxCell id="abNH4VKIRFXWZq9GWaRh-30" value="" style="shape=link;html=1;rounded=0;exitX=0.5;exitY=1;exitDx=0;exitDy=0;entryX=0.5;entryY=0;entryDx=0;entryDy=0;" edge="1" parent="1" source="abNH4VKIRFXWZq9GWaRh-2" target="abNH4VKIRFXWZq9GWaRh-29">
          <mxGeometry relative="1" as="geometry">
            <mxPoint x="490" y="610" as="sourcePoint" />
            <mxPoint x="430" y="640" as="targetPoint" />
          </mxGeometry>
        </mxCell>
        <mxCell id="abNH4VKIRFXWZq9GWaRh-31" value="1" style="resizable=0;html=1;align=right;verticalAlign=bottom;" connectable="0" vertex="1" parent="abNH4VKIRFXWZq9GWaRh-30">
          <mxGeometry x="1" relative="1" as="geometry" />
        </mxCell>
        <mxCell id="abNH4VKIRFXWZq9GWaRh-32" value="" style="endArrow=none;html=1;rounded=0;entryX=0.5;entryY=1;entryDx=0;entryDy=0;" edge="1" parent="1" target="abNH4VKIRFXWZq9GWaRh-29">
          <mxGeometry relative="1" as="geometry">
            <mxPoint x="480" y="700" as="sourcePoint" />
            <mxPoint x="520" y="660" as="targetPoint" />
          </mxGeometry>
        </mxCell>
        <mxCell id="abNH4VKIRFXWZq9GWaRh-33" value="1" style="resizable=0;html=1;align=right;verticalAlign=bottom;" connectable="0" vertex="1" parent="abNH4VKIRFXWZq9GWaRh-32">
          <mxGeometry x="1" relative="1" as="geometry">
            <mxPoint x="10" y="20" as="offset" />
          </mxGeometry>
        </mxCell>
      </root>
    </mxGraphModel>
  </diagram>
</mxfile>
